<?xml version="1.0" standalone="no"?><!DOCTYPE svg PUBLIC "-//W3C//DTD SVG 1.1//EN" "http://www.w3.org/Graphics/SVG/1.1/DTD/svg11.dtd"><svg t="1521284688695" class="icon" style="" viewBox="0 0 1024 1024" version="1.1" xmlns="http://www.w3.org/2000/svg" p-id="2058" xmlns:xlink="http://www.w3.org/1999/xlink" width="32" height="32"><defs><style type="text/css"></style></defs><path d="M390.987391 510.564301c0-15.778358 3.13848-31.55774 9.17701-46.136783 6.03853-14.580067 14.97404-27.954679 26.136264-39.116903 11.159154-11.154038 24.530696-20.091594 39.114856-26.133194 14.580067-6.037507 30.353308-9.17701 46.136783-9.17701 15.779382 0 31.553647 3.13848 46.137807 9.17701 14.580067 6.0416 27.954679 14.979156 39.110763 26.133194 11.160177 11.161201 20.097734 24.536836 26.13524 39.116903 6.0416 14.579043 9.175987 30.358425 9.175987 46.136783 0 15.783475-3.134387 31.55774-9.175987 46.13576-6.037507 14.580067-14.975063 27.953655-26.13524 39.115879-11.155061 11.161201-24.530696 20.093641-39.110763 26.136264-14.58416 6.036483-30.358425 9.175987-46.137807 9.175987-15.783475 0-31.556717-3.13848-46.136783-9.175987-14.58416-6.042623-27.955702-14.975063-39.114856-26.136264-11.162224-11.161201-20.097734-24.535813-26.136264-39.115879C394.125871 542.123065 390.987391 526.3488 390.987391 510.564301L390.987391 510.564301zM502.496044 216.550011c-284.827047 0-438.94924 293.773813-438.94924 293.773813S263.605212 804.577568 514.746042 804.577568c251.133667 0 444.806645-296.810986 444.806645-296.810986S787.324114 216.550011 502.496044 216.550011L502.496044 216.550011zM511.55128 725.397205c-118.650307 0-214.833927-96.182596-214.833927-214.832903s96.184643-214.832903 214.833927-214.832903c118.646214 0 214.829833 96.18362 214.829833 214.832903S630.198517 725.397205 511.55128 725.397205L511.55128 725.397205zM511.55128 725.397205" p-id="2059" fill="#8a8a8a"></path></svg>